<?xml version="1.0" encoding="iso-8859-1"?>
<!-- Generator: Adobe Illustrator 16.0.0, SVG Export Plug-In . SVG Version: 6.00 Build 0)  -->
<!DOCTYPE svg PUBLIC "-//W3C//DTD SVG 1.1//EN" "http://www.w3.org/Graphics/SVG/1.1/DTD/svg11.dtd">
<svg version="1.1" id="Capa_1" xmlns="http://www.w3.org/2000/svg" xmlns:xlink="http://www.w3.org/1999/xlink" x="0px" y="0px"
	 width="315.409px" height="315.409px" viewBox="0 0 315.409 315.409" style="enable-background:new 0 0 315.409 315.409;"
	 xml:space="preserve">
<g>
	<g>
		<path d="M124.347,238.612c0-51.179,41.633-92.812,92.81-92.812c3.791,0,7.509,0.298,11.185,0.741V57.797c0-0.005,0-0.005,0-0.011
			c0-0.005,0-0.005,0-0.011V52.31h-5.964l0.011,0.077H49.807c-11.454,0-16.806-9.521-17.276-19.388
			c-0.021-0.469-0.092-0.933-0.092-1.408c0-10.347,5.369-20.791,17.368-20.791h167.735c0.195,0,0.354-0.092,0.543-0.108
			c2.722-0.288,4.862-2.5,4.862-5.292c0-2.985-2.415-5.4-5.4-5.4H49.807C33.488,0,21.639,13.289,21.639,31.596
			c0,0.53,0.044,1.036,0.066,1.556v253.154c0,16.073,13.03,29.104,29.106,29.104h114.297
			C140.526,298.688,124.347,270.512,124.347,238.612z"/>
		<path d="M228.342,162.912c-3.665-0.543-7.372-0.912-11.185-0.912c-42.24,0-76.615,34.367-76.615,76.612
			c0,42.251,34.364,76.618,76.615,76.618c3.808,0,7.52-0.375,11.185-0.912c36.946-5.442,65.428-37.263,65.428-75.706
			C293.77,200.18,265.293,168.35,228.342,162.912z M266.242,250.352h-37.336v37.336h-0.559h-22.919v-37.336h-37.341v-23.478h37.341
			v-37.336h22.919h0.559v37.336h37.336V250.352z"/>
	</g>
</g>
<g>
</g>
<g>
</g>
<g>
</g>
<g>
</g>
<g>
</g>
<g>
</g>
<g>
</g>
<g>
</g>
<g>
</g>
<g>
</g>
<g>
</g>
<g>
</g>
<g>
</g>
<g>
</g>
<g>
</g>
</svg>
